<?xml version="1.0" encoding="UTF-8"?>
<svg width="1300px" height="424px" viewBox="0 0 1300 424" version="1.1" xmlns="http://www.w3.org/2000/svg" xmlns:xlink="http://www.w3.org/1999/xlink">
    <!-- Generator: Sketch 50.2 (55047) - http://www.bohemiancoding.com/sketch -->
    <title>Group 34</title>
    <desc>Created with Sketch.</desc>
    <defs></defs>
    <g id="Page-1" stroke="none" stroke-width="1" fill="none" fill-rule="evenodd">
        <g id="market-About" transform="translate(-71.000000, -2373.000000)">
            <g id="Group-34" transform="translate(71.000000, 2373.000000)">
                <polygon id="Fill-2" fill="#181E26" points="0 423.371091 1299.65185 423.371091 1299.65185 0 0 0"></polygon>
                <polygon id="Fill-2" fill="#29323D" points="504.692388 423.371091 934.692388 423.371091 934.692388 0 504.692388 0"></polygon>
                <polygon id="Fill-2" fill="#29323D" points="0 423.371091 80 423.371091 80 0 0 0"></polygon>
                <polygon id="Fill-2" fill="#FFFFFF" points="0 201.371091 1299.32422 201.371091 1299.32422 198 0 198"></polygon>
                <text id="2017" font-family="WorkSans-Light, Work Sans" font-size="36" font-weight="300" letter-spacing="-0.5082353" fill="#FFFFFF">
                    <tspan x="102.400471" y="390">2017</tspan>
                </text>
                <rect id="Rectangle-7" stroke="#181E26" stroke-width="2" fill="#00E2C1" transform="translate(185.500000, 200.500000) rotate(45.000000) translate(-185.500000, -200.500000) " x="178" y="193" width="15" height="15"></rect>
                <rect id="Rectangle-7" stroke="#181E26" stroke-width="2" fill="#00E2C1" transform="translate(235.500000, 200.500000) rotate(45.000000) translate(-235.500000, -200.500000) " x="228" y="193" width="15" height="15"></rect>
                <rect id="Rectangle-7" stroke="#181E26" stroke-width="2" fill="#00E2C1" transform="translate(355.500000, 200.500000) rotate(45.000000) translate(-355.500000, -200.500000) " x="348" y="193" width="15" height="15"></rect>
                <rect id="Rectangle-7" stroke="#181E26" stroke-width="2" fill="#00E2C1" transform="translate(495.500000, 200.500000) rotate(45.000000) translate(-495.500000, -200.500000) " x="488" y="193" width="15" height="15"></rect>
                <rect id="Rectangle-7" stroke="#181E26" stroke-width="2" fill="#00E2C1" transform="translate(565.500000, 200.500000) rotate(45.000000) translate(-565.500000, -200.500000) " x="558" y="193" width="15" height="15"></rect>
                <rect id="Rectangle-7" stroke="#181E26" stroke-width="2" fill="#00E2C1" transform="translate(685.500000, 200.500000) rotate(45.000000) translate(-685.500000, -200.500000) " x="678" y="193" width="15" height="15"></rect>
                <rect id="Rectangle-7" stroke="#181E26" stroke-width="2" fill="#00E2C1" transform="translate(865.500000, 200.500000) rotate(45.000000) translate(-865.500000, -200.500000) " x="858" y="193" width="15" height="15"></rect>
                <rect id="Rectangle-7" stroke="#181E26" stroke-width="2" fill="#00E2C1" transform="translate(995.500000, 200.500000) rotate(45.000000) translate(-995.500000, -200.500000) " x="988" y="193" width="15" height="15"></rect>
                <rect id="Rectangle-7" stroke="#181E26" stroke-width="2" fill="#00E2C1" transform="translate(1095.500000, 200.500000) rotate(45.000000) translate(-1095.500000, -200.500000) " x="1088" y="193" width="15" height="15"></rect>
                <rect id="Rectangle-3" fill="#000000" x="235" y="242" width="251" height="73"></rect>
                <rect id="Rectangle-3" fill="#00E2C1" x="235" y="202" width="1" height="113"></rect>
                <rect id="Rectangle-3" fill="#000000" x="185" y="82" width="150" height="73"></rect>
                <rect id="Rectangle-3" fill="#00E2C1" x="185" y="82" width="1" height="118"></rect>
                <text id="Full-time-work-on-MA" font-family="WorkSans-Light, Work Sans" font-size="21" font-weight="300" letter-spacing="-0.2964705" fill="#FFFFFF">
                    <tspan x="250" y="272">Full-time work on </tspan>
                    <tspan x="250" y="297">MARKET Protocol begins</tspan>
                </text>
                <text id="White-paper-created" font-family="WorkSans-Light, Work Sans" font-size="21" font-weight="300" letter-spacing="-0.2964705" fill="#FFFFFF">
                    <tspan x="200" y="112">White paper </tspan>
                    <tspan x="200" y="137">created</tspan>
                </text>
                <rect id="Rectangle-3" fill="#000000" x="565" y="242" width="150" height="73"></rect>
                <rect id="Rectangle-3" fill="#00E2C1" x="565" y="202" width="1" height="113"></rect>
                <text id="White-paper-publishe" font-family="WorkSans-Light, Work Sans" font-size="21" font-weight="300" letter-spacing="-0.2964705" fill="#FFFFFF">
                    <tspan x="580" y="272">White paper </tspan>
                    <tspan x="580" y="297">published</tspan>
                </text>
                <rect id="Rectangle-3" fill="#000000" x="865" y="242" width="160" height="73"></rect>
                <rect id="Rectangle-3" fill="#00E2C1" x="865" y="202" width="1" height="113"></rect>
                <text id="Beta-dApp-2.0-releas" font-family="WorkSans-Light, Work Sans" font-size="21" font-weight="300" letter-spacing="-0.2964705" fill="#FFFFFF">
                    <tspan x="880" y="272">Beta dApp </tspan>
                    <tspan x="880" y="297">2.0 released</tspan>
                </text>
                <rect id="Rectangle-3" fill="#000000" x="1095" y="242" width="150" height="84"></rect>
                <rect id="Rectangle-3" fill="#00E2C1" x="1095" y="202" width="1" height="124"></rect>
                <text id="Continued-developmen" font-family="WorkSans-Light, Work Sans" font-size="21" font-weight="300" letter-spacing="-0.2964705" fill="#FFFFFF">
                    <tspan x="1105" y="269">Continued </tspan>
                    <tspan x="1105" y="294">development </tspan>
                    <tspan x="1105" y="319">and support</tspan>
                </text>
                <polygon id="Rectangle-3" fill="#000000" points="355 82 465 82 465 155 355 155"></polygon>
                <rect id="Rectangle-3" fill="#00E2C1" x="355" y="82" width="1" height="118"></rect>
                <text id="Proof-of-concept" font-family="WorkSans-Light, Work Sans" font-size="21" font-weight="300" letter-spacing="-0.2964705" fill="#FFFFFF">
                    <tspan x="370" y="112">Proof of </tspan>
                    <tspan x="370" y="137">concept</tspan>
                </text>
                <rect id="Rectangle-3" fill="#000000" x="495" y="82" width="170" height="73"></rect>
                <rect id="Rectangle-3" fill="#00E2C1" x="495" y="82" width="1" height="118"></rect>
                <text id="Testnet-trades-compl" font-family="WorkSans-Light, Work Sans" font-size="21" font-weight="300" letter-spacing="-0.2964705" fill="#FFFFFF">
                    <tspan x="510" y="112">Testnet trades </tspan>
                    <tspan x="510" y="137">completed</tspan>
                </text>
                <rect id="Rectangle-3" fill="#000000" x="685" y="82" width="160" height="73"></rect>
                <rect id="Rectangle-3" fill="#00E2C1" x="685" y="82" width="1" height="118"></rect>
                <text id="Beta-dApp-1.0-releas" font-family="WorkSans-Light, Work Sans" font-size="21" font-weight="300" letter-spacing="-0.2964705" fill="#FFFFFF">
                    <tspan x="700" y="112">Beta dApp 1.0 </tspan>
                    <tspan x="700" y="137">release</tspan>
                </text>
                <rect id="Rectangle-3" fill="#000000" x="995" y="82" width="210" height="73"></rect>
                <rect id="Rectangle-3" fill="#00E2C1" x="995" y="82" width="1" height="118"></rect>
                <text id="Mainnet-launch;-toke" font-family="WorkSans-Light, Work Sans" font-size="21" font-weight="300" letter-spacing="-0.2964705" fill="#FFFFFF">
                    <tspan x="1010" y="112">Mainnet launch; </tspan>
                    <tspan x="1010" y="137">tokens available</tspan>
                </text>
                <text id="2018" font-family="WorkSans-Light, Work Sans" font-size="36" font-weight="300" letter-spacing="-0.5082353" fill="#FFFFFF">
                    <tspan x="532.302471" y="390">2018</tspan>
                </text>
                <text id="2019" font-family="WorkSans-Light, Work Sans" font-size="36" font-weight="300" letter-spacing="-0.5082353" fill="#FFFFFF">
                    <tspan x="959.212471" y="390">2019</tspan>
                </text>
            </g>
        </g>
    </g>
</svg>