<?xml version="1.0" encoding="UTF-8"?>
<svg width="315px" height="1073px" viewBox="0 0 315 1073" version="1.1" xmlns="http://www.w3.org/2000/svg" xmlns:xlink="http://www.w3.org/1999/xlink">
    <!-- Generator: Sketch 50.2 (55047) - http://www.bohemiancoding.com/sketch -->
    <title>Group 2</title>
    <desc>Created with Sketch.</desc>
    <defs></defs>
    <g id="Page-1" stroke="none" stroke-width="1" fill="none" fill-rule="evenodd">
        <g id="mobile-timeline" transform="translate(-30.000000, -22.000000)">
            <g id="Group-2" transform="translate(30.000000, 22.000000)">
                <polygon id="Fill-2" fill="#181E26" points="0 1072.58299 315 1072.58299 315 2 0 2"></polygon>
                <polygon id="Fill-2" fill="#29323D" points="0 68.5234375 315 68.5234375 315 2 0 2"></polygon>
                <polygon id="Fill-2" fill="#29323D" points="0 880.523438 315 880.523438 315 474 0 474"></polygon>
                <text id="2017" font-family="WorkSans-Light, Work Sans" font-size="36" font-weight="300" letter-spacing="-0.5082353" fill="#FFFFFF">
                    <tspan x="27" y="124">2017</tspan>
                </text>
                <text id="2018" font-family="WorkSans-Light, Work Sans" font-size="36" font-weight="300" letter-spacing="-0.5082353" fill="#FFFFFF">
                    <tspan x="27" y="523">2018</tspan>
                </text>
                <text id="2019" font-family="WorkSans-Light, Work Sans" font-size="36" font-weight="300" letter-spacing="-0.5082353" fill="#FFFFFF">
                    <tspan x="27" y="933">2019</tspan>
                </text>
                <polygon id="Fill-2" fill="#FFFFFF" transform="translate(157.720944, 563.673827) rotate(90.000000) translate(-157.720944, -563.673827) " points="-405.952883 565.418208 721.394772 565.418208 721.394772 561.929447 -405.952883 561.929447"></polygon>
                <rect id="Rectangle-7" stroke="#181E26" stroke-width="2" fill="#00E2C1" transform="translate(157.192388, 156.192388) rotate(45.000000) translate(-157.192388, -156.192388) " x="150.692388" y="149.692388" width="13" height="13"></rect>
                <rect id="Rectangle-3" fill="#000000" x="178" y="117" width="120" height="73"></rect>
                <rect id="Rectangle-3" fill="#00E2C1" x="178" y="117" width="1" height="73"></rect>
                <polygon id="Rectangle-3" fill="#00E2C1" transform="translate(167.500000, 156.000000) rotate(90.000000) translate(-167.500000, -156.000000) " points="167 146 168 146 168 166 167 166"></polygon>
                <text id="White-paper-created" font-family="WorkSans-Light, Work Sans" font-size="16" font-weight="300" letter-spacing="-0.2258823" fill="#FFFFFF">
                    <tspan x="193" y="149">White paper </tspan>
                    <tspan x="193" y="168">created</tspan>
                </text>
                <rect id="Rectangle-7" stroke="#181E26" stroke-width="2" fill="#00E2C1" transform="translate(157.192388, 316.192388) rotate(45.000000) translate(-157.192388, -316.192388) " x="150.692388" y="309.692388" width="13" height="13"></rect>
                <rect id="Rectangle-3" fill="#000000" x="178" y="277" width="120" height="73"></rect>
                <rect id="Rectangle-3" fill="#00E2C1" x="178" y="277" width="1" height="73"></rect>
                <polygon id="Rectangle-3" fill="#00E2C1" transform="translate(167.500000, 316.000000) rotate(90.000000) translate(-167.500000, -316.000000) " points="167 306 168 306 168 326 167 326"></polygon>
                <text id="Proof-of-concept" font-family="WorkSans-Light, Work Sans" font-size="16" font-weight="300" letter-spacing="-0.2258823" fill="#FFFFFF">
                    <tspan x="193" y="309">Proof of </tspan>
                    <tspan x="193" y="328">concept</tspan>
                </text>
                <rect id="Rectangle-7" stroke="#181E26" stroke-width="2" fill="#00E2C1" transform="translate(157.192388, 526.192388) rotate(45.000000) translate(-157.192388, -526.192388) " x="150.692388" y="519.692388" width="13" height="13"></rect>
                <rect id="Rectangle-3" fill="#000000" x="178" y="487" width="120" height="73"></rect>
                <rect id="Rectangle-3" fill="#00E2C1" x="178" y="487" width="1" height="73"></rect>
                <polygon id="Rectangle-3" fill="#00E2C1" transform="translate(167.500000, 526.000000) rotate(90.000000) translate(-167.500000, -526.000000) " points="167 516 168 516 168 536 167 536"></polygon>
                <text id="Whitepaper-published" font-family="WorkSans-Light, Work Sans" font-size="16" font-weight="300" letter-spacing="-0.2258823" fill="#FFFFFF">
                    <tspan x="193" y="519">Whitepaper </tspan>
                    <tspan x="193" y="538">published</tspan>
                </text>
                <rect id="Rectangle-7" stroke="#181E26" stroke-width="2" fill="#00E2C1" transform="translate(157.192388, 786.192388) rotate(45.000000) translate(-157.192388, -786.192388) " x="150.692388" y="779.692388" width="13" height="13"></rect>
                <rect id="Rectangle-3" fill="#000000" x="178" y="747" width="120" height="73"></rect>
                <rect id="Rectangle-3" fill="#00E2C1" x="178" y="747" width="1" height="73"></rect>
                <polygon id="Rectangle-3" fill="#00E2C1" transform="translate(167.500000, 786.000000) rotate(90.000000) translate(-167.500000, -786.000000) " points="167 776 168 776 168 796 167 796"></polygon>
                <text id="Beta-dApp-2.0-releas" font-family="WorkSans-Light, Work Sans" font-size="16" font-weight="300" letter-spacing="-0.2258823" fill="#FFFFFF">
                    <tspan x="193" y="779">Beta dApp </tspan>
                    <tspan x="193" y="798">2.0 release</tspan>
                </text>
                <polygon id="Rectangle-3" fill="#000000" points="17 167 137 167 137 260 17 260"></polygon>
                <g id="Group" transform="translate(150.500000, 213.500000) scale(-1, 1) translate(-150.500000, -213.500000) translate(135.000000, 167.000000)" fill="#00E2C1">
                    <rect id="Rectangle-7" stroke="#181E26" stroke-width="2" transform="translate(8.192388, 49.192388) rotate(45.000000) translate(-8.192388, -49.192388) " x="1.69238816" y="42.6923882" width="13" height="13"></rect>
                    <polygon id="Rectangle-3" points="29 0 30 0 30 93 29 93"></polygon>
                    <polygon id="Rectangle-3" transform="translate(18.500000, 49.000000) rotate(90.000000) translate(-18.500000, -49.000000) " points="18 39 19 39 19 59 18 59"></polygon>
                </g>
                <text id="Full-time-work-on-MA" font-family="WorkSans-Light, Work Sans" font-size="16" font-weight="300" letter-spacing="-0.2258823" fill="#FFFFFF">
                    <tspan x="27" y="187">Full-time work </tspan>
                    <tspan x="27" y="206">on MARKET </tspan>
                    <tspan x="27" y="225">Protocol </tspan>
                    <tspan x="27" y="244">begins</tspan>
                </text>
                <polygon id="Rectangle-3" fill="#000000" points="178 847 298 847 298 940 178 940"></polygon>
                <g id="Group" transform="translate(149.000000, 847.000000)" fill="#00E2C1">
                    <rect id="Rectangle-7" stroke="#181E26" stroke-width="2" transform="translate(8.192388, 49.192388) rotate(45.000000) translate(-8.192388, -49.192388) " x="1.69238816" y="42.6923882" width="13" height="13"></rect>
                    <polygon id="Rectangle-3" points="29 0 30 0 30 93 29 93"></polygon>
                    <polygon id="Rectangle-3" transform="translate(18.500000, 49.000000) rotate(90.000000) translate(-18.500000, -49.000000) " points="18 39 19 39 19 59 18 59"></polygon>
                </g>
                <text id="Mainnet-launch;-toke" font-family="WorkSans-Light, Work Sans" font-size="16" font-weight="300" letter-spacing="-0.2258823" fill="#FFFFFF">
                    <tspan x="190" y="870">Mainnet </tspan>
                    <tspan x="190" y="889">launch; </tspan>
                    <tspan x="190" y="908">tokens </tspan>
                    <tspan x="190" y="927">available</tspan>
                </text>
                <rect id="Rectangle-3" fill="#000000" x="17" y="387" width="120" height="73"></rect>
                <g id="Group" transform="translate(150.500000, 423.500000) scale(-1, 1) translate(-150.500000, -423.500000) translate(135.000000, 387.000000)" fill="#00E2C1">
                    <rect id="Rectangle-7" stroke="#181E26" stroke-width="2" transform="translate(8.192388, 39.192388) rotate(45.000000) translate(-8.192388, -39.192388) " x="1.69238816" y="32.6923882" width="13" height="13"></rect>
                    <rect id="Rectangle-3" x="29" y="0" width="1" height="73"></rect>
                    <polygon id="Rectangle-3" transform="translate(18.500000, 39.000000) rotate(90.000000) translate(-18.500000, -39.000000) " points="18 29 19 29 19 49 18 49"></polygon>
                </g>
                <text id="Testnet-trades-compl" font-family="WorkSans-Light, Work Sans" font-size="16" font-weight="300" letter-spacing="-0.2258823" fill="#FFFFFF">
                    <tspan x="29" y="410">Testnet </tspan>
                    <tspan x="29" y="429">trades </tspan>
                    <tspan x="29" y="448">completed</tspan>
                </text>
                <rect id="Rectangle-3" fill="#000000" x="17" y="577" width="120" height="73"></rect>
                <g id="Group" transform="translate(150.500000, 613.500000) scale(-1, 1) translate(-150.500000, -613.500000) translate(135.000000, 577.000000)" fill="#00E2C1">
                    <rect id="Rectangle-7" stroke="#181E26" stroke-width="2" transform="translate(8.192388, 39.192388) rotate(45.000000) translate(-8.192388, -39.192388) " x="1.69238816" y="32.6923882" width="13" height="13"></rect>
                    <rect id="Rectangle-3" x="29" y="0" width="1" height="73"></rect>
                    <polygon id="Rectangle-3" transform="translate(18.500000, 39.000000) rotate(90.000000) translate(-18.500000, -39.000000) " points="18 29 19 29 19 49 18 49"></polygon>
                </g>
                <text id="Beta-dApp-1.0-releas" font-family="WorkSans-Light, Work Sans" font-size="16" font-weight="300" letter-spacing="-0.2258823" fill="#FFFFFF">
                    <tspan x="29" y="609">Beta dApp </tspan>
                    <tspan x="29" y="628">1.0 release</tspan>
                </text>
                <rect id="Rectangle-3" fill="#000000" x="17" y="967" width="120" height="73"></rect>
                <g id="Group" transform="translate(150.500000, 1003.500000) scale(-1, 1) translate(-150.500000, -1003.500000) translate(135.000000, 967.000000)" fill="#00E2C1">
                    <rect id="Rectangle-7" stroke="#181E26" stroke-width="2" transform="translate(8.192388, 39.192388) rotate(45.000000) translate(-8.192388, -39.192388) " x="1.69238816" y="32.6923882" width="13" height="13"></rect>
                    <rect id="Rectangle-3" x="29" y="0" width="1" height="73"></rect>
                    <polygon id="Rectangle-3" transform="translate(18.500000, 39.000000) rotate(90.000000) translate(-18.500000, -39.000000) " points="18 29 19 29 19 49 18 49"></polygon>
                </g>
                <text id="Continued-developmen" font-family="WorkSans-Light, Work Sans" font-size="16" font-weight="300" letter-spacing="-0.2258823" fill="#FFFFFF">
                    <tspan x="25" y="991">Continued </tspan>
                    <tspan x="25" y="1010">development </tspan>
                    <tspan x="25" y="1029">and support</tspan>
                </text>
            </g>
        </g>
    </g>
</svg>